<?xml version="1.0" encoding="iso-8859-1"?>
<!-- Generator: Adobe Illustrator 19.0.0, SVG Export Plug-In . SVG Version: 6.00 Build 0)  -->
<svg version="1.1" id="Layer_1" xmlns="http://www.w3.org/2000/svg" xmlns:xlink="http://www.w3.org/1999/xlink" x="0px" y="0px"
	 viewBox="0 0 512 512" style="enable-background:new 0 0 512 512;" xml:space="preserve">
<g>
	<g>
		<path d="M201.422,4.197h-25.14c-23.151,0-41.987,18.863-41.987,42.047v419.512c0,23.184,18.835,42.047,41.987,42.047h25.141
			c23.151,0,41.988-18.863,41.988-42.047V46.244C243.41,23.059,224.574,4.197,201.422,4.197z M226.623,465.756
			c0,13.928-11.305,25.26-25.201,25.26h-25.14c-13.895,0-25.2-11.332-25.2-25.26V46.244c0-13.928,11.304-25.26,25.2-25.26h25.141
			c13.895,0,25.201,11.332,25.201,25.26V465.756z"/>
	</g>
</g>
<g>
	<g>
		<path d="M67.127,4.197H41.986C18.835,4.197,0,23.059,0,46.244v419.512c0,23.184,18.835,42.047,41.987,42.047h25.14
			c23.151,0,41.988-18.863,41.988-42.047V46.244C109.115,23.059,90.279,4.197,67.127,4.197z M92.328,465.756
			c0,13.928-11.305,25.26-25.201,25.26H41.986c-13.895,0-25.2-11.332-25.2-25.26V46.244c0-13.928,11.304-25.26,25.2-25.26h25.14
			c13.895,0,25.201,11.332,25.201,25.26V465.756z"/>
	</g>
</g>
<g>
	<g>
		<path d="M470.012,4.197h-25.14c-23.151,0-41.987,18.863-41.987,42.047v419.512c0,23.184,18.835,42.047,41.987,42.047h25.14
			c23.151,0,41.988-18.863,41.988-42.047V46.244C512,23.059,493.164,4.197,470.012,4.197z M495.213,465.756
			c0,13.928-11.305,25.26-25.201,25.26h-25.14c-13.895,0-25.2-11.332-25.2-25.26V46.244c0-13.928,11.304-25.26,25.2-25.26h25.14
			c13.895,0,25.201,11.332,25.201,25.26V465.756z"/>
	</g>
</g>
<g>
	<g>
		<path d="M335.717,4.197h-25.141c-23.151,0-41.987,18.863-41.987,42.047v419.512c0,23.184,18.835,42.047,41.987,42.047h25.14
			c23.151,0,41.988-18.863,41.988-42.047V46.244C377.705,23.059,358.869,4.197,335.717,4.197z M360.918,465.756
			c0,13.928-11.305,25.26-25.201,25.26h-25.141c-13.895,0-25.2-11.332-25.2-25.26V46.244c0-13.928,11.304-25.26,25.2-25.26h25.14
			c13.895,0,25.201,11.332,25.201,25.26V465.756z"/>
	</g>
</g>
<g>
</g>
<g>
</g>
<g>
</g>
<g>
</g>
<g>
</g>
<g>
</g>
<g>
</g>
<g>
</g>
<g>
</g>
<g>
</g>
<g>
</g>
<g>
</g>
<g>
</g>
<g>
</g>
<g>
</g>
</svg>
